<?xml version="1.0" standalone="no"?><!DOCTYPE svg PUBLIC "-//W3C//DTD SVG 1.1//EN" "http://www.w3.org/Graphics/SVG/1.1/DTD/svg11.dtd"><svg t="1786601414149" class="icon" viewBox="0 0 1024 1024" version="1.1" xmlns="http://www.w3.org/2000/svg" p-id="28227" xmlns:xlink="http://www.w3.org/1999/xlink" width="200" height="200"><path d="M697.982086 437.705287a38.395201 38.395201 0 0 0-23.805025 20.050827l-3.071616 6.313877 0.042661 8.830896c0 8.233637 0.170645 9.257509 2.517019 15.059451 3.242261 8.233637 6.484523 13.310336 12.414448 19.112278 10.23872 10.153397 21.75728 12.7984 37.200684 8.745573a36.688747 36.688747 0 0 0 22.055909-18.600341 31.996 31.996 0 0 0 3.412907-21.245345c-2.730325-19.325584-14.07824-33.361163-30.886806-38.267216a47.055451 47.055451 0 0 0-19.880181 0z m-392.612257 0.213307c-13.011707 4.095488-22.738491 13.651627-27.729867 27.260592a51.193601 51.193601 0 0 0-2.55968 22.183894c2.431696 13.182352 13.225014 25.170187 25.511477 28.455109 15.443403 4.052827 26.961963 1.407824 37.200684-8.745573 5.972587-5.801941 9.172187-10.87864 12.414448-19.112278 2.346373-5.801941 2.517019-6.825813 2.517019-15.059451l0.042661-8.830896-3.071616-6.313877a38.395201 38.395201 0 0 0-24.103654-20.13615 42.703995 42.703995 0 0 0-20.221472 0.29863z m178.495021 85.322668c-5.588635 2.986293-9.513477 10.665333-8.31896 16.33929 1.322501 6.100571 6.697829 12.286464 15.059451 17.363163 4.47944 2.687664 4.778069 3.071616 4.991376 5.801942 0.170645 1.621131-0.426613 6.228555-1.237179 10.366704-0.853227 4.010165-1.535808 8.276299-1.535808 9.470816 0.085323 3.156939 2.986293 8.31896 6.100571 10.793318 2.730325 2.218389 3.242261 2.303712 10.87864 2.517018 6.996459 0.213307 8.446944 0 11.262592-1.27984 7.209765-3.498229 9.044203-9.982752 6.399201-22.3972-2.218389-10.366704-1.791776-11.945174 3.711536-15.144774 5.844603-3.412907 11.987835-9.385493 13.822272-13.395659a15.571387 15.571387 0 0 0-7.465734-20.47744 17.064534 17.064534 0 0 0-7.721701-1.407824c-5.375328 0-8.830896 1.27984-15.144774 5.290006l-3.626213 2.26105-2.261051-1.365162c-9.342832-5.545973-11.049286-6.185893-16.680581-6.100571a17.149856 17.149856 0 0 0-8.233638 1.365163z m16.63792-93.641629c-15.912678 1.535808-20.264134 2.133067-27.900512 3.668875a192.274632 192.274632 0 0 0-40.570929 13.992918c-40.101654 19.624214-67.78886 52.302795-76.235803 90.18606-1.706453 7.508395-1.91976 9.982752-1.91976 22.610507 0 12.542432 0.213307 15.230096 1.834437 22.354539 11.262592 49.487147 56.824897 86.047911 115.78286 92.703079 12.7984 1.407824 68.087489 1.407824 80.88589 0 47.354081-5.332667 88.052993-31.01479 106.354705-67.020956 4.863392-9.641461 7.209765-15.870016 9.385494-25.682123 1.663792-7.124443 1.877099-9.812107 1.877098-22.311878 0-12.670416-0.213307-15.144774-1.91976-22.653168-12.286464-55.033121-65.655793-98.291714-131.055618-106.525351a299.909178 299.909178 0 0 0-36.518102-1.322502z m27.516561 39.97367a140.782402 140.782402 0 0 1 61.432321 21.927926c9.513477 6.313877 22.909136 19.538891 28.625755 28.241803 7.081781 10.665333 11.091947 21.671958 12.926384 34.982294 0.853227 6.100571 0.426613 10.665333-1.834437 20.562763-3.412907 14.71816-14.163563 30.07624-28.668417 40.826897a127.856018 127.856018 0 0 1-29.393659 14.846144c-16.29663 5.204683-26.961963 6.143232-65.058534 5.887264-24.828896-0.255968-29.265675-0.426613-36.390118-1.791776-24.31696-4.564763-43.514561-14.206224-57.592801-29.009707-11.262592-11.945174-16.424614-22.823814-19.1976-40.357622-1.27984-8.190976 1.066533-21.75728 5.844603-33.105195 5.801941-13.907595 20.818731-31.142774 35.664875-41.082865 17.192518-11.51856 39.845686-19.624214 60.664417-21.842603 7.977669-0.853227 24.999542-0.853227 32.977211-0.085323z m-234.765321-469.274674a70.391201 70.391201 0 0 0-29.137691 12.713078c-24.487606 18.55768-43.429238 58.019414-51.449569 107.250594-2.986293 18.600342-5.076699 44.367787-5.076699 64.119985 0 23.207766 2.730325 52.900054 6.612507 73.377494 0.853227 4.607424 1.322501 8.660251 0.981211 8.916219l-7.97767 6.484523a226.10507 226.10507 0 0 0-40.485606 43.51456 234.637337 234.637337 0 0 0-40.101654 99.784861 281.564804 281.564804 0 0 0-0.98121 57.89143c3.882181 33.275841 13.864934 61.346998 31.014789 87.029121l5.545974 8.31896-1.578469 2.730326c-11.475899 19.282923-21.245344 47.140774-25.810108 73.88943-3.583552 21.160022-4.052827 26.833979-4.052826 55.203766 0 28.583094 0.383952 34.257051 3.754197 54.009249 4.052827 23.67704 12.286464 48.761905 21.458651 65.442486 3.028955 5.460651 10.366704 16.765904 11.262592 17.363163 0.298629 0.127984-0.597259 2.858309-1.962421 5.972587a315.736533 315.736533 0 0 0-23.378411 79.94734c-2.389035 13.950256-3.412907 28.15648-3.028955 42.234721 0 23.890347 1.322501 35.536891 6.313878 54.606507L145.901762 1023.872016h63.053452l-2.133067-3.882181c-12.670416-23.549056-13.864934-67.191601-2.90097-110.791485 4.991376-20.13615 10.665333-34.982294 21.245344-55.289089l6.313877-12.371787v-7.551056c0-7.03912-0.127984-7.849685-2.431696-12.49977a38.437862 38.437862 0 0 0-8.276299-10.665334 72.524268 72.524268 0 0 1-16.424613-23.165104c-18.088406-39.248427-21.586635-97.52381-8.873558-147.224264 5.290005-20.733408 14.035579-39.163105 23.207766-49.231179a34.129067 34.129067 0 0 0 9.513478-22.653169c0-8.31896-2.986293-15.144774-9.556139-22.269216a133.956589 133.956589 0 0 1-34.85431-73.804108c-5.972587-40.954881 4.863392-85.493313 29.43632-120.859559 24.018331-34.726326 57.720785-56.995542 95.433404-62.925468 8.489605-1.407824 24.31696-1.194517 33.105196 0.426614 9.641461 1.706453 15.65671 1.194517 21.842603-1.749115 7.636379-3.626213 11.433238-8.105653 15.955339-18.387035 3.967504-9.172187 7.03912-14.206224 15.35808-24.572929 9.982752-12.371787 19.624214-20.904054 35.067616-31.142773 17.619131-11.51856 37.712619-19.880182 57.678124-23.890347 7.252427-1.493147 10.665333-1.706453 24.274299-1.706454 13.608966 0 16.979211 0.213307 24.274299 1.706454a173.631629 173.631629 0 0 1 81.653793 42.53335c4.991376 4.650085 16.979211 19.49623 20.818731 25.682123 1.450485 2.431696 4.052827 7.551056 5.631296 11.390576 4.47944 10.23872 8.31896 14.760822 15.955339 18.344373 5.972587 2.900971 12.201142 3.498229 21.458651 1.919761 14.632838-2.474357 25.89543-2.261051 40.229638 0.682581 48.804566 9.812107 91.295255 50.041745 110.108903 103.965671 16.424614 47.268758 11.774528 96.713244-12.627755 134.511186-4.138149 6.3992-8.233637 11.51856-14.206224 17.875099-12.841062 13.73695-12.841062 30.801483-0.042661 44.922385 21.032038 22.994459 34.171729 79.606049 30.204224 129.51981-2.645003 32.93455-11.091947 62.413532-22.738491 79.094113a85.024039 85.024039 0 0 1-9.556138 11.006624 38.480523 38.480523 0 0 0-8.276299 10.665334c-2.303712 4.650085-2.431696 5.460651-2.431696 12.49977v7.593718l6.313877 12.371787c10.580011 20.306795 16.211307 35.110278 21.245344 55.246427 10.793318 43.002625 9.854768 85.749281-2.517018 110.066242a43.130609 43.130609 0 0 0-1.877099 4.223472c0 0.255968 14.035579 0.383952 31.228097 0.383952h31.142773l0.853227-3.156939 1.535808-5.716618c0.810565-3.242261 2.431696-12.7984 3.754197-22.013249 1.27984-17.875099 1.27984-35.835521 0-53.667958-4.692747-37.328667-12.585094-66.978294-25.468816-94.964129-1.365163-3.156939-2.261051-5.887264-1.962421-6.015249 1.706453-2.047744 3.1996-4.223472 4.607424-6.484522 16.040662-24.31696 25.89543-54.777153 30.886806-95.049452 1.322501-11.091947 1.322501-58.787318 0-69.452652-3.540891-27.51656-7.764363-46.159563-14.846145-65.058535a256.522601 256.522601 0 0 0-14.035579-29.862933l-1.62113-2.730326 5.588635-8.276299c17.149856-25.767446 27.132608-53.838604 31.014789-87.029121a281.564804 281.564804 0 0 0-1.023872-57.934091 234.637337 234.637337 0 0 0-40.058992-99.827522 226.10507 226.10507 0 0 0-40.528268-43.514561l-7.935008-6.441861a29.905595 29.905595 0 0 1 0.981211-8.873558c8.873557-46.37287 8.574928-104.221639-0.725243-149.442653-8.105653-39.419073-22.823814-70.732492-41.808107-88.820897-15.102112-14.419531-30.545515-20.562763-49.060534-19.410907-42.490689 2.517019-76.790401 51.406907-90.271383 128.410615a299.055951 299.055951 0 0 0-4.138149 30.972129c0 1.535808-0.298629 2.815648-0.63992 2.815648a42.618673 42.618673 0 0 1-6.356539-3.327584A207.334083 207.334083 0 0 0 511.936008 129.263842c-35.49423 0-71.96967 10.366704-104.776236 29.777611a42.661334 42.661334 0 0 1-6.313878 3.327584c-0.341291 0-0.63992-1.27984-0.63992-2.815648a298.629338 298.629338 0 0 0-4.138149-30.929467C383.824022 59.384577 355.667542 13.608966 318.253552 2.047744a85.621297 85.621297 0 0 0-24.999542-1.749115z m12.499771 59.811191c10.580011 8.404283 22.311878 32.379953 29.09503 59.213931 1.27984 4.820731 2.55968 10.409365 2.943632 12.45711 0.298629 2.005083 1.109195 6.484523 1.749114 9.940091 2.858309 15.571387 4.180811 32.422614 4.351456 52.900054l0.085323 20.264133-5.11936 7.465734-5.034037 7.593717h-11.859851c-13.822272 0-27.559222 1.706453-40.698913 5.290006l-10.153397 2.55968c-1.407824 0.298629-1.621131-0.127984-2.431696-6.143232a358.355206 358.355206 0 0 1 0.682581-99.102279c5.290005-33.617131 17.619131-64.034662 29.692288-72.993543 2.858309-2.133067 3.370245-2.133067 6.69783 0.554598z m419.147606-0.511936c7.252427 5.375328 15.272758 19.624214 21.245345 37.883264 11.945174 36.432779 15.35808 86.517185 9.044202 134.169896-0.810565 5.972587-1.023872 6.3992-2.431696 6.143232l-10.153397-2.55968a157.846936 157.846936 0 0 0-40.698913-5.290006h-11.859851l-5.076698-7.593717-5.076699-7.465734 0.085323-20.221472c0.170645-28.583094 2.815648-50.766987 9.129525-75.595884 6.697829-26.578011 18.515019-50.553681 29.009707-58.957963 3.327584-2.645003 3.83952-2.687664 6.783152-0.511936z" p-id="28228"></path></svg>